<svg id="visual" viewBox="0 0 900 600" width="900" height="600" xmlns="http://www.w3.org/2000/svg" xmlns:xlink="http://www.w3.org/1999/xlink" version="1.1"><rect x="0" y="0" width="900" height="600" fill="#13293a"></rect><defs><linearGradient id="grad1_0" x1="33.3%" y1="100%" x2="100%" y2="0%"><stop offset="20%" stop-color="#ffffff" stop-opacity="1"></stop><stop offset="80%" stop-color="#ffffff" stop-opacity="1"></stop></linearGradient></defs><defs><linearGradient id="grad1_1" x1="33.3%" y1="100%" x2="100%" y2="0%"><stop offset="20%" stop-color="#ffffff" stop-opacity="1"></stop><stop offset="80%" stop-color="#ccd0d4" stop-opacity="1"></stop></linearGradient></defs><defs><linearGradient id="grad1_2" x1="33.3%" y1="100%" x2="100%" y2="0%"><stop offset="20%" stop-color="#9aa2ab" stop-opacity="1"></stop><stop offset="80%" stop-color="#ccd0d4" stop-opacity="1"></stop></linearGradient></defs><defs><linearGradient id="grad1_3" x1="33.3%" y1="100%" x2="100%" y2="0%"><stop offset="20%" stop-color="#9aa2ab" stop-opacity="1"></stop><stop offset="80%" stop-color="#6b7783" stop-opacity="1"></stop></linearGradient></defs><defs><linearGradient id="grad1_4" x1="33.3%" y1="100%" x2="100%" y2="0%"><stop offset="20%" stop-color="#3f4e5d" stop-opacity="1"></stop><stop offset="80%" stop-color="#6b7783" stop-opacity="1"></stop></linearGradient></defs><defs><linearGradient id="grad1_5" x1="33.3%" y1="100%" x2="100%" y2="0%"><stop offset="20%" stop-color="#3f4e5d" stop-opacity="1"></stop><stop offset="80%" stop-color="#13293a" stop-opacity="1"></stop></linearGradient></defs><defs><linearGradient id="grad2_0" x1="0%" y1="100%" x2="66.7%" y2="0%"><stop offset="20%" stop-color="#ffffff" stop-opacity="1"></stop><stop offset="80%" stop-color="#ffffff" stop-opacity="1"></stop></linearGradient></defs><defs><linearGradient id="grad2_1" x1="0%" y1="100%" x2="66.7%" y2="0%"><stop offset="20%" stop-color="#ccd0d4" stop-opacity="1"></stop><stop offset="80%" stop-color="#ffffff" stop-opacity="1"></stop></linearGradient></defs><defs><linearGradient id="grad2_2" x1="0%" y1="100%" x2="66.7%" y2="0%"><stop offset="20%" stop-color="#ccd0d4" stop-opacity="1"></stop><stop offset="80%" stop-color="#9aa2ab" stop-opacity="1"></stop></linearGradient></defs><defs><linearGradient id="grad2_3" x1="0%" y1="100%" x2="66.7%" y2="0%"><stop offset="20%" stop-color="#6b7783" stop-opacity="1"></stop><stop offset="80%" stop-color="#9aa2ab" stop-opacity="1"></stop></linearGradient></defs><defs><linearGradient id="grad2_4" x1="0%" y1="100%" x2="66.7%" y2="0%"><stop offset="20%" stop-color="#6b7783" stop-opacity="1"></stop><stop offset="80%" stop-color="#3f4e5d" stop-opacity="1"></stop></linearGradient></defs><defs><linearGradient id="grad2_5" x1="0%" y1="100%" x2="66.7%" y2="0%"><stop offset="20%" stop-color="#13293a" stop-opacity="1"></stop><stop offset="80%" stop-color="#3f4e5d" stop-opacity="1"></stop></linearGradient></defs><g transform="translate(900, 600)"><path d="M-132 0C-120.9 -13.8 -109.8 -27.6 -102.6 -42.5C-95.3 -57.4 -91.8 -73.3 -82 -82C-72.2 -90.7 -56.1 -92.1 -41.3 -99.8C-26.6 -107.4 -13.3 -121.3 0 -135.2L0 0Z" fill="#293b4b"></path><path d="M-110 0C-100.8 -11.5 -91.5 -23 -85.5 -35.4C-79.4 -47.8 -76.5 -61.1 -68.4 -68.4C-60.2 -75.6 -46.7 -76.8 -34.4 -83.1C-22.2 -89.5 -11.1 -101.1 0 -112.7L0 0Z" fill="#556270"></path><path d="M-88 0C-80.6 -9.2 -73.2 -18.4 -68.4 -28.3C-63.5 -38.2 -61.2 -48.9 -54.7 -54.7C-48.1 -60.5 -37.4 -61.4 -27.6 -66.5C-17.7 -71.6 -8.9 -80.9 0 -90.1L0 0Z" fill="#828c97"></path><path d="M-66 0C-60.5 -6.9 -54.9 -13.8 -51.3 -21.2C-47.6 -28.7 -45.9 -36.7 -41 -41C-36.1 -45.4 -28 -46.1 -20.7 -49.9C-13.3 -53.7 -6.7 -60.7 0 -67.6L0 0Z" fill="#b3b8bf"></path><path d="M-44 0C-40.3 -4.6 -36.6 -9.2 -34.2 -14.2C-31.8 -19.1 -30.6 -24.4 -27.3 -27.3C-24.1 -30.2 -18.7 -30.7 -13.8 -33.3C-8.9 -35.8 -4.4 -40.4 0 -45.1L0 0Z" fill="#e5e7e9"></path><path d="M-22 0C-20.2 -2.3 -18.3 -4.6 -17.1 -7.1C-15.9 -9.6 -15.3 -12.2 -13.7 -13.7C-12 -15.1 -9.3 -15.4 -6.9 -16.6C-4.4 -17.9 -2.2 -20.2 0 -22.5L0 0Z" fill="#ffffff"></path></g><g transform="translate(0, 0)"><path d="M135.2 0C122.7 14.5 110.2 28.9 101.6 42.1C93.1 55.2 88.6 67.1 81.3 81.3C74.1 95.6 64.1 112.2 50.1 121C36.1 129.9 18.1 130.9 0 132L0 0Z" fill="#293b4b"></path><path d="M112.7 0C102.2 12.1 91.8 24.1 84.7 35.1C77.6 46 73.8 55.9 67.8 67.8C61.7 79.6 53.4 93.5 41.8 100.9C30.1 108.2 15.1 109.1 0 110L0 0Z" fill="#556270"></path><path d="M90.1 0C81.8 9.6 73.4 19.3 67.8 28.1C62.1 36.8 59 44.7 54.2 54.2C49.4 63.7 42.8 74.8 33.4 80.7C24.1 86.6 12 87.3 0 88L0 0Z" fill="#828c97"></path><path d="M67.6 0C61.3 7.2 55.1 14.5 50.8 21C46.5 27.6 44.3 33.5 40.7 40.7C37 47.8 32.1 56.1 25.1 60.5C18.1 64.9 9 65.5 0 66L0 0Z" fill="#b3b8bf"></path><path d="M45.1 0C40.9 4.8 36.7 9.6 33.9 14C31 18.4 29.5 22.4 27.1 27.1C24.7 31.9 21.4 37.4 16.7 40.3C12 43.3 6 43.6 0 44L0 0Z" fill="#e5e7e9"></path><path d="M22.5 0C20.4 2.4 18.4 4.8 16.9 7C15.5 9.2 14.8 11.2 13.6 13.6C12.3 15.9 10.7 18.7 8.4 20.2C6 21.6 3 21.8 0 22L0 0Z" fill="#ffffff"></path></g></svg>